<svg width="18" height="16" viewBox="0 0 18 16" fill="none" xmlns="http://www.w3.org/2000/svg">
<path fill-rule="evenodd" clip-rule="evenodd" d="M0.993884 16C0.444977 16 0 15.5523 0 15C0 14.4477 0.444977 14 0.993884 14H17.0061C17.555 14 18 14.4477 18 15C18 15.5523 17.555 16 17.0061 16H0.993884ZM0.993884 9C0.444977 9 0 8.55228 0 8C0 7.44772 0.444977 7 0.993884 7H17.0061C17.555 7 18 7.44772 18 8C18 8.55228 17.555 9 17.0061 9H0.993884ZM0.993884 2C0.444977 2 0 1.55228 0 1C0 0.447715 0.444977 0 0.993884 0H17.0061C17.555 0 18 0.447715 18 1C18 1.55228 17.555 2 17.0061 2H0.993884Z" fill="#767676"/>
</svg>
