<svg width="16" height="16" viewBox="0 0 16 16" fill="none" xmlns="http://www.w3.org/2000/svg">
<path fill-rule="evenodd" clip-rule="evenodd" d="M1.7412 7.79492C-1.15334 9.38346 6.64354 10.3483 8.40005 10.3327V9.36393L9.85969 10.8223L8.40005 12.2832V11.3757C4.8701 11.5098 -3.43849 9.23763 1.5589 7.35221C1.60578 7.49935 1.66307 7.63867 1.72817 7.76888L1.7412 7.79492ZM14.1097 4.79883C14.1097 4.45898 14.1709 4.2207 14.2933 4.08529C14.4157 3.94987 14.6019 3.88216 14.8532 3.88216C14.973 3.88216 15.0732 3.89779 15.15 3.92643C15.2269 3.95638 15.2907 3.99414 15.3389 4.04232C15.3883 4.08919 15.4261 4.13997 15.4547 4.19206C15.4834 4.24414 15.5055 4.30534 15.5224 4.37565C15.5563 4.50846 15.5719 4.64779 15.5719 4.79362C15.5719 5.11784 15.5172 5.35612 15.4066 5.50586C15.2972 5.6556 15.1084 5.73112 14.8389 5.73112C14.6891 5.73112 14.5667 5.70638 14.4743 5.65951C14.3818 5.61133 14.305 5.54102 14.2464 5.44857C14.2034 5.38216 14.1696 5.29232 14.1461 5.17904C14.1214 5.06315 14.1097 4.93815 14.1097 4.79883ZM3.44692 5.08268L2.27505 4.87435C2.37271 4.50195 2.5589 4.21549 2.83625 4.01628C3.11229 3.81706 3.50422 3.7168 4.01073 3.7168C4.59276 3.7168 5.01203 3.82487 5.27245 4.04232C5.53156 4.25977 5.66047 4.5332 5.66047 4.86133C5.66047 5.05404 5.60708 5.22852 5.50291 5.38346C5.39745 5.53971 5.23989 5.67643 5.02765 5.79362C5.19953 5.83659 5.33234 5.88607 5.42219 5.94336C5.57062 6.03451 5.68521 6.1556 5.76724 6.30404C5.84927 6.45378 5.89094 6.63086 5.89094 6.83789C5.89094 7.09831 5.82323 7.347 5.68781 7.58659C5.55109 7.82487 5.35578 8.00846 5.10057 8.13737C4.84536 8.26628 4.50942 8.33008 4.09276 8.33008C3.68781 8.33008 3.3675 8.2819 3.13442 8.18685C2.90005 8.0918 2.70734 7.95247 2.5563 7.76758C2.40526 7.58398 2.28937 7.35221 2.20864 7.07357L3.44953 6.9082C3.49901 7.1582 3.57323 7.33268 3.67609 7.43034C3.77765 7.52669 3.90786 7.57617 4.06672 7.57617C4.23208 7.57617 4.3701 7.51497 4.48078 7.39388C4.59146 7.27279 4.64614 7.11003 4.64614 6.9069C4.64614 6.69987 4.59276 6.53971 4.48729 6.42643C4.38182 6.31315 4.23729 6.25586 4.055 6.25586C3.95864 6.25586 3.82453 6.2793 3.65526 6.32878L3.71906 5.44206C3.78677 5.45247 3.84015 5.45768 3.87791 5.45768C4.03807 5.45768 4.17219 5.4056 4.27896 5.30273C4.38573 5.19987 4.44041 5.07878 4.44041 4.93685C4.44041 4.80013 4.40005 4.69206 4.31932 4.61263C4.23859 4.5319 4.12661 4.49154 3.98729 4.49154C3.84146 4.49154 3.72427 4.53581 3.63312 4.62305C3.54067 4.70898 3.47948 4.86263 3.44692 5.08268ZM9.78547 4.79362L8.55109 4.94466C8.51854 4.77279 8.46515 4.65299 8.38963 4.58268C8.31281 4.51237 8.21906 4.47721 8.10838 4.47721C7.90786 4.47721 7.75161 4.57747 7.64094 4.7806C7.56021 4.92773 7.49901 5.23893 7.46125 5.7168C7.60968 5.56576 7.76203 5.45508 7.91698 5.38346C8.07323 5.31185 8.25422 5.27539 8.45864 5.27539C8.85708 5.27539 9.19302 5.41732 9.46776 5.70117C9.7425 5.98633 9.88052 6.34701 9.88052 6.7832C9.88052 7.07747 9.81151 7.3457 9.67218 7.59049C9.53286 7.83398 9.34015 8.01888 9.09406 8.14388C8.84666 8.26888 8.53807 8.33138 8.16567 8.33138C7.71906 8.33138 7.36099 8.25586 7.09146 8.10221C6.82192 7.94987 6.60578 7.70768 6.44432 7.37435C6.28286 7.04102 6.20213 6.59961 6.20213 6.04883C6.20213 5.24414 6.3714 4.6543 6.71125 4.2793C7.04849 3.9043 7.51854 3.7168 8.1201 3.7168C8.47557 3.7168 8.75552 3.75716 8.96125 3.83919C9.16698 3.92122 9.33885 4.04232 9.47427 4.19857C9.61099 4.35742 9.71515 4.55534 9.78547 4.79362ZM7.50291 6.7832C7.50291 7.02539 7.56411 7.21419 7.68521 7.35091C7.8076 7.48763 7.95604 7.55664 8.13312 7.55664C8.29588 7.55664 8.4326 7.49414 8.54198 7.37044C8.65135 7.24674 8.70604 7.06185 8.70604 6.81575C8.70604 6.56445 8.64875 6.37174 8.53547 6.24023C8.42088 6.10872 8.28026 6.04232 8.11099 6.04232C7.93911 6.04232 7.79328 6.10612 7.67609 6.23503C7.56021 6.36263 7.50291 6.54492 7.50291 6.7832ZM10.1448 6.00456C10.1448 5.1569 10.2972 4.56315 10.6032 4.22461C10.9079 3.88607 11.374 3.7168 11.9977 3.7168C12.2985 3.7168 12.5446 3.75456 12.7373 3.82747C12.93 3.90169 13.0875 3.99805 13.2086 4.11654C13.331 4.23503 13.4274 4.36003 13.4964 4.49023C13.5667 4.62174 13.6227 4.77409 13.6657 4.94857C13.749 5.2806 13.7907 5.62826 13.7907 5.99023C13.7907 6.80013 13.654 7.39128 13.3792 7.76628C13.1058 8.14128 12.6344 8.32878 11.9639 8.32878C11.5889 8.32878 11.2855 8.26888 11.0537 8.14909C10.8219 8.0293 10.6331 7.85352 10.4847 7.62174C10.3779 7.45768 10.2933 7.23372 10.2334 6.94857C10.1748 6.66471 10.1448 6.34961 10.1448 6.00456ZM11.3727 6.00716C11.3727 6.57487 11.4222 6.96289 11.5237 7.17122C11.624 7.37956 11.7698 7.48242 11.9612 7.48242C12.0875 7.48242 12.1956 7.43815 12.2881 7.35091C12.3805 7.26237 12.4482 7.12174 12.4912 6.93164C12.5355 6.74023 12.5563 6.44336 12.5563 6.03971C12.5563 5.44727 12.5068 5.05013 12.4053 4.8444C12.305 4.64128 12.154 4.53841 11.9534 4.53841C11.7477 4.53841 11.6006 4.64258 11.5081 4.84961C11.4183 5.05924 11.3727 5.44466 11.3727 6.00716ZM14.6019 4.80013C14.6019 5.02799 14.6214 5.18294 14.6618 5.26628C14.7021 5.34961 14.7607 5.39128 14.8375 5.39128C14.8883 5.39128 14.9313 5.37435 14.9691 5.33789C15.0055 5.30273 15.0329 5.24674 15.0511 5.16992C15.068 5.0931 15.0771 4.97461 15.0771 4.81315C15.0771 4.57617 15.0576 4.41602 15.0172 4.33398C14.9769 4.25195 14.917 4.21159 14.8362 4.21159C14.7542 4.21159 14.6943 4.25326 14.6579 4.33659C14.6201 4.41992 14.6019 4.57487 14.6019 4.80013ZM14.2321 7.65299C15.6071 8.35221 15.279 9.3444 12.8441 9.94727C12.154 10.1178 11.374 10.2728 10.5185 10.3366V11.1243C11.4704 11.0579 12.3558 10.8392 13.1305 10.6517C16.792 9.76497 16.6644 8.18164 14.3493 7.28841C14.3167 7.41732 14.2777 7.53841 14.2321 7.65299Z" fill="white"/>
</svg>
