<svg width="100" height="42" viewBox="0 0 100 42" fill="none" xmlns="http://www.w3.org/2000/svg">
<path fill-rule="evenodd" clip-rule="evenodd" d="M88.7049 24.6976C99.007 24.6976 100 22.0531 100 12.7147C100 3.37626 99.007 0.73175 88.7049 0.73175C78.4028 0.73175 77.4098 3.37626 77.4098 12.7147C77.4098 22.0531 78.4028 24.6976 88.7049 24.6976Z" fill="#37890C"/>
<path fill-rule="evenodd" clip-rule="evenodd" d="M88.7048 22.3837C96.9692 22.3837 97.7658 20.2407 97.7658 12.6734C97.7658 5.10604 96.9692 2.96307 88.7048 2.96307C80.4405 2.96307 79.6439 5.10604 79.6439 12.6734C79.6439 20.2407 80.4405 22.3837 88.7048 22.3837Z" fill="#9FD200"/>
<path fill-rule="evenodd" clip-rule="evenodd" d="M93.8067 7.53232C94.3722 8.09783 94.372 9.01492 93.8062 9.58074L91.8647 11.5222L93.2174 17.3816C93.395 18.151 92.9222 18.9205 92.1582 19.1116L92.1321 19.1179L92.1058 19.1237C91.3352 19.2869 90.5733 18.8034 90.3954 18.0331L89.4498 13.9371L86.9035 16.4834L87.1971 16.7771C87.5466 17.1266 87.5518 17.69 87.2127 18.0462L87.1968 18.0625C86.8418 18.4175 86.2663 18.4175 85.9115 18.0627L84.7964 16.9477C84.7246 16.8999 84.6562 16.845 84.592 16.7831L84.5739 16.7652C84.5045 16.6959 84.4437 16.6213 84.3914 16.5427L83.2178 15.3691C82.8629 15.0142 82.863 14.4388 83.2181 14.0837C83.5731 13.7287 84.1486 13.7286 84.5034 14.0835L84.8556 14.4355L87.405 11.886L83.3008 10.9385C82.5306 10.7607 82.0471 9.99874 82.2102 9.22818L82.216 9.20191C82.396 8.42265 83.1742 7.93695 83.9523 8.11658L89.8199 9.47116L91.7583 7.53283C92.3181 6.97306 93.2216 6.96675 93.7886 7.51446L93.8067 7.53232Z" fill="white"/>
<path fill-rule="evenodd" clip-rule="evenodd" d="M48.5794 28.7869C53.7629 28.7869 57.965 29.3813 57.965 35.0276C57.965 40.6739 53.7629 41.2683 48.5794 41.2683C43.3958 41.2683 39.1938 40.5996 39.1938 35.0276C39.1938 29.4556 43.3958 28.7869 48.5794 28.7869ZM48.5794 32.3105C46.0314 32.3105 43.9659 32.5976 43.9659 34.9905C43.9659 37.3833 46.0314 37.6704 48.5794 37.6704C51.1273 37.6704 53.1928 37.4152 53.1928 34.9905C53.1928 32.5657 51.1273 32.3105 48.5794 32.3105ZM66.6503 13.4125C70.7606 13.4125 74.0926 14.1604 74.0926 21.265C74.0926 28.3697 70.7606 29.1176 66.6503 29.1176C62.54 29.1176 59.2079 28.2762 59.2079 21.265C59.2079 14.2539 62.54 13.4125 66.6503 13.4125ZM31.6713 13.4125C37.7078 13.4125 39.8579 14.983 39.8579 21.3477C39.8579 21.5745 39.8559 21.795 39.8517 22.0093L34.9676 22.0092L34.9676 22.009L28.7888 22.0091C28.8755 24.8631 29.4778 25.9765 31.8141 25.9765C33.5518 25.9765 34.3892 25.5737 34.7476 24.0754L39.7181 24.0757C39.2131 28.1324 37.2104 29.1176 31.6713 29.1176C25.0559 29.1176 23.8155 26.969 23.8155 21.3477C23.8155 15.1484 25.6347 13.4125 31.6713 13.4125ZM22.082 13.9911C22.082 16.3056 19.4328 28.2083 18.9366 28.2083H13.3129C12.8161 28.2083 11.0808 20.2731 11.0808 20.2731C11.0808 20.2731 9.42696 28.2083 8.84811 28.2083H3.05963C2.56347 28.2083 0 16.3882 0 14.0738H4.54885L4.55032 14.0854C4.59807 14.4633 5.7951 23.9101 6.11926 23.9101C6.45003 23.9101 9.0135 14.0738 9.0135 14.0738H12.9862L12.9891 14.0854C13.0844 14.4633 15.4701 23.9101 15.7943 23.9101C16.1251 23.9101 17.6135 13.9911 17.6135 13.9911H22.082ZM49.5329 13.4125C53.6432 13.4125 56.9752 14.0738 56.9752 20.3558C56.9752 26.6378 53.6432 27.2991 49.5329 27.2991C45.4226 27.2991 42.0906 26.5552 42.0906 20.3558C42.0906 14.1565 45.4226 13.4125 49.5329 13.4125ZM66.6503 16.8714C65.1432 16.8714 63.9214 17.3371 63.9214 21.2183C63.9214 25.0995 65.1432 25.5652 66.6503 25.5652C68.1574 25.5652 69.3791 25.1512 69.3791 21.2183C69.3791 17.2854 68.1574 16.8714 66.6503 16.8714ZM49.5329 16.4709C48.0258 16.4709 46.804 16.8827 46.804 20.3145C46.804 23.7463 48.0258 24.1581 49.5329 24.1581C51.04 24.1581 52.2618 23.792 52.2618 20.3145C52.2618 16.8369 51.04 16.4709 49.5329 16.4709ZM31.8141 16.2229C29.9594 16.2229 29.1345 16.9038 28.874 19.1157L34.8733 19.1159C34.5851 16.8463 33.6797 16.2229 31.8141 16.2229ZM56.9339 9.11432C58.6291 9.11432 59.2079 9.77558 59.2079 11.0981C59.2079 12.4206 58.6291 13.0819 56.9339 13.0819C55.2387 13.0819 54.6598 12.4206 54.6598 11.0981C54.6598 9.77558 55.2387 9.11432 56.9339 9.11432Z" fill="#565656"/>
</svg>
