<svg width="18" height="12" viewBox="0 0 18 12" fill="none" xmlns="http://www.w3.org/2000/svg">
<path d="M18.0002 0H-0.000183105V12H18.0002V0Z" fill="#F0F0F0"/>
<path d="M18.0002 0H-0.000183105V6H18.0002V0Z" fill="#D80027"/>
<path d="M2.93469 3.00026C2.93469 2.12608 3.5491 1.3958 4.36952 1.2166C4.24341 1.18904 4.11259 1.17413 3.97822 1.17413C2.96964 1.17413 2.1521 1.99167 2.1521 3.00022C2.1521 4.00877 2.96968 4.82635 3.97822 4.82635C4.11259 4.82635 4.24341 4.81141 4.36952 4.78388C3.5491 4.60475 2.93469 3.87447 2.93469 3.00026Z" fill="#F0F0F0"/>
<path d="M5.28239 1.30432L5.41191 1.7029H5.83101L5.49193 1.94924L5.62144 2.34782L5.28239 2.10151L4.9433 2.34782L5.07285 1.94924L4.73376 1.7029H5.15287L5.28239 1.30432Z" fill="#F0F0F0"/>
<path d="M4.26579 2.08655L4.39527 2.48512H4.81438L4.47529 2.73147L4.60481 3.13004L4.26579 2.88373L3.9267 3.13004L4.05625 2.73147L3.71716 2.48512H4.13627L4.26579 2.08655Z" fill="#F0F0F0"/>
<path d="M6.29914 2.08655L6.42866 2.48512H6.84776L6.50868 2.73147L6.63819 3.13004L6.29914 2.88373L5.96008 3.13004L6.08964 2.73147L5.75055 2.48512H6.16966L6.29914 2.08655Z" fill="#F0F0F0"/>
<path d="M5.90781 3.2608L6.03733 3.65938H6.45643L6.11738 3.90572L6.2469 4.3043L5.90781 4.05799L5.56879 4.3043L5.69831 3.90572L5.35925 3.65938H5.77832L5.90781 3.2608Z" fill="#F0F0F0"/>
<path d="M4.65717 3.2608L4.78665 3.65938H5.20576L4.8667 3.90572L4.99622 4.3043L4.65717 4.05799L4.31812 4.3043L4.44763 3.90572L4.10858 3.65938H4.52765L4.65717 3.2608Z" fill="#F0F0F0"/>
</svg>
