<svg width="32" height="32" viewBox="0 0 32 32" fill="none" xmlns="http://www.w3.org/2000/svg">
<path fill-rule="evenodd" clip-rule="evenodd" d="M20 29.3334H12C12 30.0698 11.4031 30.6667 10.6667 30.6667C9.93031 30.6667 9.33335 30.0698 9.33335 29.3334C9.33335 29.258 9.33961 29.1841 9.35162 29.1122C7.7885 28.5682 6.66669 27.0818 6.66669 25.3334V9.33337C6.66669 7.12423 8.45755 5.33337 10.6667 5.33337V4.00004C10.6667 2.52728 11.8606 1.33337 13.3334 1.33337H18.6667C20.1394 1.33337 21.3334 2.52728 21.3334 4.00004V5.33337C23.5425 5.33337 25.3334 7.12423 25.3334 9.33337V25.3334C25.3334 27.0818 24.2115 28.5682 22.6484 29.1122C22.6604 29.1841 22.6667 29.258 22.6667 29.3334C22.6667 30.0698 22.0697 30.6667 21.3334 30.6667C20.597 30.6667 20 30.0698 20 29.3334V29.3334ZM10.6667 8.00004C9.93031 8.00004 9.33335 8.59699 9.33335 9.33337V25.3334C9.33335 26.0698 9.93031 26.6667 10.6667 26.6667H21.3334C22.0697 26.6667 22.6667 26.0698 22.6667 25.3334V9.33337C22.6667 8.59699 22.0697 8.00004 21.3334 8.00004H10.6667ZM12.6667 10.6667H19.3334C19.7015 10.6667 20 10.9652 20 11.3334V15.3334C20 15.7016 19.7015 16 19.3334 16H12.6667C12.2985 16 12 15.7016 12 15.3334V11.3334C12 10.9652 12.2985 10.6667 12.6667 10.6667ZM13.3334 4.00004V5.33337H18.6667V4.00004H13.3334Z" fill="#767676"/>
</svg>
