<svg width="32" height="32" viewBox="0 0 32 32" fill="none" xmlns="http://www.w3.org/2000/svg">
<path fill-rule="evenodd" clip-rule="evenodd" d="M6.66669 9.33337V8.00004C6.66669 6.52728 7.86059 5.33337 9.33335 5.33337H28C29.4728 5.33337 30.6667 6.52728 30.6667 8.00004V18.6667C30.6667 20.1395 29.4728 21.3334 28 21.3334H26.6667V24C26.6667 25.4728 25.4728 26.6667 24 26.6667H5.33335C3.86059 26.6667 2.66669 25.4728 2.66669 24V12C2.66669 10.5273 3.86059 9.33337 5.33335 9.33337H6.66669ZM26.6667 18.6667H28V8.00004H9.33335V9.33337H24C25.4728 9.33337 26.6667 10.5273 26.6667 12V18.6667ZM5.33335 12V24H24V12H5.33335ZM12.4119 21.884C11.9674 21.5634 11.867 20.9432 12.1876 20.4988C12.5082 20.0544 13.1283 19.9539 13.5728 20.2745C14.4659 20.9188 15.3488 20.6942 15.3488 19.9819C15.3488 19.82 15.1803 19.694 14.309 19.3573L14.2871 19.3489C12.6687 18.7236 12.0001 18.2285 12.0001 16.9114C12.0001 15.7049 12.6643 14.9367 13.5673 14.5915V14C13.5673 13.6319 13.8658 13.3334 14.234 13.3334H14.8851C15.2533 13.3334 15.5517 13.6319 15.5517 14V14.4577C16.0123 14.5506 16.4643 14.7256 16.87 14.9813C17.3336 15.2735 17.4726 15.8861 17.1804 16.3497C16.8883 16.8133 16.2756 16.9523 15.812 16.6602C15.003 16.1504 13.9845 16.3559 13.9845 16.9114C13.9845 17.0473 14.1464 17.1671 15.0023 17.4978L15.0243 17.5063C16.6508 18.1347 17.3332 18.6451 17.3332 19.9819C17.3332 21.3365 16.5699 22.1887 15.5517 22.4978V22.5889C15.5517 22.9571 15.2533 23.2556 14.8851 23.2556H14.234C13.8658 23.2556 13.5673 22.9571 13.5673 22.5889V22.4627C13.1691 22.3395 12.7767 22.1471 12.4119 21.884Z" fill="#767676"/>
</svg>
