<svg width="32" height="32" viewBox="0 0 32 32" fill="none" xmlns="http://www.w3.org/2000/svg">
<path fill-rule="evenodd" clip-rule="evenodd" d="M5.97338 16.1873C5.56295 15.3222 5.33333 14.3546 5.33333 13.3334C5.33333 9.65148 8.3181 6.66671 12 6.66671C14.7344 6.66671 17.0843 8.31295 18.1127 10.6684C18.172 10.6673 18.2315 10.6667 18.2911 10.6667C22.6527 10.6667 26.3277 13.6305 27.4012 17.6603C30.0708 18.5305 32 21.04 32 24C32 27.5498 29.2257 30.4515 25.7271 30.6553L10.6667 30.6667C6.24839 30.6667 2.66667 27.085 2.66667 22.6667C2.66667 20.0018 3.96969 17.6412 5.97338 16.1873V16.1873ZM8.36407 15.003C9.06715 14.7921 9.81092 14.6753 10.5808 14.6672C11.747 13.0112 13.4193 11.771 15.3441 11.1378C14.629 10.0509 13.3983 9.33337 12 9.33337C9.79086 9.33337 8 11.1242 8 13.3334C8 13.9294 8.13034 14.4949 8.36407 15.003V15.003ZM6.34315 5.7909C6.86385 6.3116 6.86385 7.15582 6.34315 7.67652C5.82245 8.19722 4.97823 8.19722 4.45753 7.67652L3.51472 6.73371C2.99402 6.21301 2.99402 5.36879 3.51472 4.84809C4.03542 4.32739 4.87964 4.32739 5.40034 4.84809L6.34315 5.7909ZM19.5425 7.67652C19.0218 8.19722 18.1776 8.19722 17.6569 7.67652C17.1362 7.15582 17.1362 6.3116 17.6569 5.7909L18.5997 4.84809C19.1204 4.32739 19.9646 4.32739 20.4853 4.84809C21.006 5.36879 21.006 6.21301 20.4853 6.73371L19.5425 7.67652ZM1.33333 12H2.66667C3.40305 12 4 12.597 4 13.3334C4 14.0698 3.40305 14.6667 2.66667 14.6667H1.33333C0.596954 14.6667 0 14.0698 0 13.3334C0 12.597 0.596954 12 1.33333 12ZM12 1.33337C12.7364 1.33337 13.3333 1.93033 13.3333 2.66671V4.00004C13.3333 4.73642 12.7364 5.33337 12 5.33337C11.2636 5.33337 10.6667 4.73642 10.6667 4.00004V2.66671C10.6667 1.93033 11.2636 1.33337 12 1.33337ZM25.2978 28C27.5425 28 29.3333 26.2092 29.3333 24C29.3333 21.7909 27.5425 20 25.3333 20C25.2385 20 25.1444 20.0033 25.0511 20.0098C25.0061 16.3148 21.9968 13.3334 18.2911 13.3334C15.4717 13.3334 13.0554 15.0592 12.041 17.5121C11.6025 17.3955 11.1419 17.3334 10.6667 17.3334C7.72115 17.3334 5.33333 19.7212 5.33333 22.6667C5.33333 25.6122 7.72115 28 10.6667 28H25.2978Z" fill="#767676"/>
</svg>
