<svg width="24" height="24" viewBox="0 0 24 24" fill="none" xmlns="http://www.w3.org/2000/svg">
<path fill-rule="evenodd" clip-rule="evenodd" d="M20 6.53933C19.4113 6.80067 18.7787 6.97667 18.1147 7.056C18.7927 6.65 19.3133 6.00667 19.558 5.24C18.924 5.616 18.2213 5.88933 17.4733 6.03667C16.8753 5.39867 16.0213 5 15.0773 5C12.958 5 11.4007 6.97733 11.8793 9.03C9.152 8.89333 6.73333 7.58667 5.114 5.60067C4.254 7.076 4.668 9.006 6.12933 9.98333C5.592 9.966 5.08533 9.81867 4.64333 9.57267C4.60733 11.0933 5.69733 12.516 7.276 12.8327C6.814 12.958 6.308 12.9873 5.79333 12.8887C6.21067 14.1927 7.42267 15.1413 8.86 15.168C7.48 16.25 5.74133 16.7333 4 16.528C5.45267 17.4593 7.17867 18.0027 9.032 18.0027C15.1267 18.0027 18.57 12.8553 18.362 8.23867C19.0033 7.77533 19.56 7.19733 20 6.53933Z" fill="#AFADB4"/>
</svg>
