<svg width="32" height="32" viewBox="0 0 32 32" fill="none" xmlns="http://www.w3.org/2000/svg">
<path fill-rule="evenodd" clip-rule="evenodd" d="M17.3103 29.2693C16.8785 29.3117 16.4414 29.3333 16 29.3333C8.63619 29.3333 2.66666 23.3638 2.66666 16C2.66666 13.6962 3.25603 11.5079 4.30463 9.59472C5.77395 6.9139 8.14491 4.7732 11.0595 3.61183C11.444 3.45864 11.8379 3.32248 12.2404 3.20438C13.4518 2.84897 14.7144 2.66663 16 2.66663C22.0275 2.66663 27.1208 6.66613 28.7709 12.1561C29.1367 13.3732 29.3333 14.6636 29.3333 16C29.3333 17.3157 29.1423 18.6073 28.7704 19.8444C28.5928 20.4348 28.3765 21.0064 28.1244 21.5564C26.3425 25.4455 22.7782 28.2618 18.5655 29.0855C18.1529 29.1662 17.7342 29.2277 17.3103 29.2693ZM26.2166 19.0766C26.5139 18.0879 26.6667 17.0549 26.6667 16C26.6667 15.5751 26.6418 15.156 26.5935 14.744L26.1458 14.307C25.5859 13.7604 24.5505 13.1743 24.3878 12.4089C24.3639 12.2963 24.3665 12.1796 24.3954 12.0682C24.4705 11.7792 25.3559 11.4605 25.6317 11.4107C24.0878 8.1762 20.9625 5.84135 17.2563 5.4065C17.4709 6.09621 17.1836 7.72148 16.9014 7.87171C16.6193 8.02194 15.693 8.58736 15.6088 9.20724C15.4825 10.1371 16.5812 11.4836 16.0357 12.295C15.8776 12.7069 14.4794 11.5238 13.9063 10.8383C13.3333 10.1528 13.139 11.8713 12.501 11.7588L12.1332 11.694L11.2647 11.8648L11.0891 11.8579C10.9042 11.8505 10.7199 11.8818 10.5478 11.9497C9.86382 12.2195 9.52805 12.9927 9.79785 13.6767C9.79942 13.7182 9.63239 14.6722 10.5478 15.821C10.8512 16.2017 11.7109 16.3842 11.8884 16.7025C12.2953 17.4321 11.7331 18.9512 10.8512 18.5886C9.96923 18.2261 9.25719 18.0489 8.7932 17.4167C8.32921 16.7844 8.42712 16.3468 7.65566 15.474C6.8842 14.6012 6.14717 14.9962 5.87715 14.4256C5.79335 14.2485 5.76727 13.9255 5.66573 13.3527C5.44831 14.2024 5.33332 15.0899 5.33332 16C5.33332 21.891 10.109 26.6666 16 26.6666C16.4499 26.6666 16.8943 26.6385 17.3314 26.5838C17.3614 26.2944 17.4233 26.0088 17.5163 25.7322L17.7449 25.0522L17.6105 24.374C17.4185 23.4059 16.8443 22.5562 16.0176 22.0171L15.9355 21.9636C15.2457 21.5137 15.0029 20.618 15.3713 19.8814L15.6088 19.4062C15.8796 18.8647 16.2359 18.3704 16.664 17.9423C17.0012 17.605 17.548 17.605 17.8853 17.9423C17.8918 17.9488 17.8982 17.9554 17.9044 17.9621C18.2311 18.3103 18.464 18.5191 18.603 18.5886C18.8153 18.6948 19.483 18.8132 20.6063 18.944L22.8973 19.622C23.4725 19.7922 23.996 20.1035 24.4202 20.5277C24.8091 20.9166 24.9103 21.5086 24.6727 22.0046C24.5697 22.2197 24.4747 22.416 24.3878 22.5935C25.1978 21.5647 25.8254 20.3778 26.2166 19.0766ZM16.0615 15.6551C16.0339 15.6673 16.0037 15.6807 15.9705 15.6953C15.8547 15.7465 15.7593 15.7859 15.663 15.821C15.4268 15.9071 15.2154 15.9557 15.0015 15.9557C14.8657 15.9557 14.7297 15.961 14.5259 15.9727C14.1849 15.9921 14.1916 15.9918 14.0928 15.9918C13.999 15.9918 13.9221 15.9868 13.8412 15.97C13.5346 15.9063 13.2681 15.7315 13.2681 15.289C13.2681 14.645 13.5512 14.1602 14.0824 13.9674C14.4469 13.8352 14.8421 13.8644 15.3112 13.9931C15.4673 14.0359 15.6253 14.0884 15.8088 14.1557C15.8043 14.154 15.9147 14.1959 16.0344 14.2406C16.5018 14.1364 17.0015 14.3246 17.0015 14.971C17.0015 15.4333 16.6402 15.6813 16.2733 15.6799C16.2001 15.6797 16.1327 15.6711 16.0615 15.6551Z" fill="#767676"/>
</svg>
