<svg width="16" height="20" viewBox="0 0 16 20" fill="none" xmlns="http://www.w3.org/2000/svg">
<path fill-rule="evenodd" clip-rule="evenodd" d="M16 20H0V15C0 12 2.66 10.76 4.25 10L4.71 9.79C3.54855 8.887 2.90847 7.46833 3 6C3 4.05 3 0 8 0C13 0 13 4.05 13 6C13.0983 7.47521 12.4575 8.90293 11.29 9.81L11.75 10.02C13.34 10.76 16 12.02 16 15.02V20ZM2 18H14V15C14 13.41 12.6 12.62 10.91 11.84C9.88 11.36 9 11 9 10C9.04642 9.30729 9.4171 8.67714 10 8.3C10.7199 7.76674 11.101 6.89019 11 6C11 3.58 10.79 2 8 2C5.21 2 5 3.58 5 6C4.89897 6.89019 5.28008 7.76674 6 8.3C6.5829 8.67714 6.95358 9.30729 7 10C7 10.95 6.12 11.36 5.09 11.84C3.4 12.62 2 13.41 2 15V18Z" fill="#27242C"/>
</svg>
